<svg id="layer_1" data-name="layer 1" xmlns="http://www.w3.org/2000/svg" xmlns:xlink="http://www.w3.org/1999/xlink" viewBox="0 0 226.77 226.77"><defs><style>.cls-1{mask:url(#mask);}.cls-10,.cls-2,.cls-4,.cls-6,.cls-8{mix-blend-mode:multiply;}.cls-2{fill:url(#radial-gradient);}.cls-3{mask:url(#mask-2);}.cls-4{fill:url(#radial-gradient-2);}.cls-5{mask:url(#mask-3);}.cls-6{fill:url(#radial-gradient-3);}.cls-7{mask:url(#mask-4);}.cls-8{fill:url(#radial-gradient-4);}.cls-9{mask:url(#mask-5);}.cls-10{fill:url(#radial-gradient-5);}.cls-11{fill:#060304;}.cls-12{mask:url(#mask-6);}.cls-13{opacity:0.5;fill:url(#未命名的渐变_44);}.cls-14{mask:url(#mask-7);}.cls-15,.cls-17,.cls-18,.cls-19{fill:#ffe693;}.cls-15{opacity:0.65;}.cls-16{mask:url(#mask-8);}.cls-17{opacity:0.62;}.cls-18{opacity:0.79;}.cls-19{opacity:0.1;}.cls-20{mask:url(#mask-9);}.cls-21{mask:url(#mask-10);}.cls-22{fill:#ccb081;}.cls-23{filter:url(#luminosity-noclip-5);}.cls-24{filter:url(#luminosity-noclip-4);}.cls-25{filter:url(#luminosity-noclip-3);}.cls-26{filter:url(#luminosity-noclip-2);}.cls-27{filter:url(#luminosity-noclip);}</style><filter id="luminosity-noclip" x="330.84" y="-8613" width="190.46" height="32766" filterUnits="userSpaceOnUse" color-interpolation-filters="sRGB"><feFlood flood-color="#fff" result="bg"/><feBlend in="SourceGraphic" in2="bg"/></filter><mask id="mask" x="330.84" y="-8613" width="190.46" height="32766" maskUnits="userSpaceOnUse"><g class="cls-27"/></mask><radialGradient id="radial-gradient" cx="175.99" cy="649.65" r="95.23" gradientTransform="matrix(-0.95, -0.32, -0.32, 0.95, 802.94, 91.99)" gradientUnits="userSpaceOnUse"><stop offset="0.6" stop-color="#010100"/><stop offset="0.63" stop-color="#030302"/><stop offset="0.65" stop-color="#0a0a09"/><stop offset="0.66" stop-color="#171716"/><stop offset="0.67" stop-color="#292928"/><stop offset="0.68" stop-color="#40403f"/><stop offset="0.68" stop-color="#5d5d5c"/><stop offset="0.69" stop-color="#7f7f7e"/><stop offset="0.69" stop-color="#a6a6a6"/><stop offset="0.7" stop-color="#d1d1d1"/><stop offset="0.7" stop-color="#fff"/><stop offset="0.73" stop-color="#cdcdcd"/><stop offset="0.75" stop-color="#9e9e9d"/><stop offset="0.78" stop-color="#747473"/><stop offset="0.81" stop-color="#50504f"/><stop offset="0.84" stop-color="#333332"/><stop offset="0.87" stop-color="#1d1d1c"/><stop offset="0.91" stop-color="#0d0d0c"/><stop offset="0.95" stop-color="#040403"/><stop offset="1" stop-color="#010100"/></radialGradient><filter id="luminosity-noclip-2" x="414.51" y="-8613" width="87.98" height="32766" filterUnits="userSpaceOnUse" color-interpolation-filters="sRGB"><feFlood flood-color="#fff" result="bg"/><feBlend in="SourceGraphic" in2="bg"/></filter><mask id="mask-2" x="414.51" y="-8613" width="87.98" height="32766" maskUnits="userSpaceOnUse"><g class="cls-26"/></mask><radialGradient id="radial-gradient-2" cx="98.8" cy="84.98" r="36.34" gradientTransform="matrix(-1.12, -0.59, -0.47, 0.88, 608.48, 574.93)" gradientUnits="userSpaceOnUse"><stop offset="0" stop-color="#fff"/><stop offset="0.03" stop-color="#e5e5e5"/><stop offset="0.1" stop-color="#b6b6b6"/><stop offset="0.17" stop-color="#8b8b8a"/><stop offset="0.24" stop-color="#666665"/><stop offset="0.32" stop-color="#464646"/><stop offset="0.41" stop-color="#2d2d2c"/><stop offset="0.51" stop-color="#191918"/><stop offset="0.62" stop-color="#0b0b0a"/><stop offset="0.76" stop-color="#030302"/><stop offset="1" stop-color="#010100"/></radialGradient><filter id="luminosity-noclip-3" x="419.29" y="-8613" width="77.28" height="32766" filterUnits="userSpaceOnUse" color-interpolation-filters="sRGB"><feFlood flood-color="#fff" result="bg"/><feBlend in="SourceGraphic" in2="bg"/></filter><mask id="mask-3" x="419.29" y="-8613" width="77.28" height="32766" maskUnits="userSpaceOnUse"><g class="cls-25"/></mask><radialGradient id="radial-gradient-3" cx="99.19" cy="607.79" r="34.12" gradientTransform="matrix(-1.12, -0.59, -0.19, 0.36, 683.06, 434.03)" gradientUnits="userSpaceOnUse"><stop offset="0" stop-color="#fff"/><stop offset="0.03" stop-color="#ebebeb"/><stop offset="0.1" stop-color="#bbbbba"/><stop offset="0.17" stop-color="#8e8e8e"/><stop offset="0.25" stop-color="#686868"/><stop offset="0.33" stop-color="#484847"/><stop offset="0.42" stop-color="#2e2e2d"/><stop offset="0.52" stop-color="#1a1a19"/><stop offset="0.63" stop-color="#0c0c0b"/><stop offset="0.77" stop-color="#030303"/><stop offset="1" stop-color="#010100"/></radialGradient><filter id="luminosity-noclip-4" x="354.33" y="-8613" width="87.98" height="32766" filterUnits="userSpaceOnUse" color-interpolation-filters="sRGB"><feFlood flood-color="#fff" result="bg"/><feBlend in="SourceGraphic" in2="bg"/></filter><mask id="mask-4" x="354.33" y="-8613" width="87.98" height="32766" maskUnits="userSpaceOnUse"><g class="cls-24"/></mask><radialGradient id="radial-gradient-4" cx="96.45" cy="219.52" r="36.34" xlink:href="#radial-gradient-2"/><filter id="luminosity-noclip-5" x="359.34" y="-8613" width="77.28" height="32766" filterUnits="userSpaceOnUse" color-interpolation-filters="sRGB"><feFlood flood-color="#fff" result="bg"/><feBlend in="SourceGraphic" in2="bg"/></filter><mask id="mask-5" x="359.34" y="-8613" width="77.28" height="32766" maskUnits="userSpaceOnUse"><g class="cls-23"/></mask><radialGradient id="radial-gradient-5" cx="96.76" cy="940.79" r="34.12" xlink:href="#radial-gradient-3"/><mask id="mask-6" x="17.18" y="14.57" width="190.46" height="190.46" maskUnits="userSpaceOnUse"><g transform="translate(-313.66 -539.86)"><g class="cls-1"><circle class="cls-2" cx="426.07" cy="649.65" r="95.23" transform="translate(-187.42 172.98) rotate(-18.89)"/></g></g></mask><linearGradient id="未命名的渐变_44" x1="426.06" y1="554.42" x2="426.06" y2="744.88" gradientTransform="translate(233.33 -102.97) rotate(18.89)" gradientUnits="userSpaceOnUse"><stop offset="0" stop-color="#dcb871"/><stop offset="0.36" stop-color="#ceb487"/><stop offset="0.49" stop-color="#fff" stop-opacity="0"/><stop offset="0.62" stop-color="#ccb081"/><stop offset="0.95" stop-color="#ccb081"/></linearGradient><mask id="mask-7" x="100.85" y="13.04" width="87.98" height="77.16" maskUnits="userSpaceOnUse"><g transform="translate(-313.66 -539.86)"><g class="cls-3"><path class="cls-4" d="M417.92,570c-9.36,17.7,1.21,41.66,23.62,53.52s48.17,7.13,57.53-10.57-1.2-41.66-23.61-53.52S427.29,552.3,417.92,570Z"/></g></g></mask><mask id="mask-8" x="105.63" y="28.08" width="77.28" height="47.07" maskUnits="userSpaceOnUse"><g transform="translate(-313.66 -539.86)"><g class="cls-5"><path class="cls-6" d="M419.83,571.31c-3.54,6.7,10.64,21.16,31.68,32.29s41,14.74,44.51,8-10.63-21.16-31.67-32.29S423.38,564.61,419.83,571.31Z"/></g></g></mask><mask id="mask-9" x="40.67" y="133.06" width="87.98" height="77.16" maskUnits="userSpaceOnUse"><g transform="translate(-313.66 -539.86)"><g class="cls-7"><path class="cls-8" d="M357.75,690c-9.37,17.7,1.2,41.66,23.61,53.52s48.17,7.14,57.53-10.56-1.2-41.66-23.61-53.53S367.11,672.32,357.75,690Z"/></g></g></mask><mask id="mask-10" x="45.68" y="147.9" width="77.28" height="47.07" maskUnits="userSpaceOnUse"><g transform="translate(-313.66 -539.86)"><g class="cls-9"><path class="cls-10" d="M359.88,691.13c-3.54,6.7,10.64,21.16,31.68,32.29s41,14.74,44.51,8-10.63-21.15-31.67-32.29S363.43,684.43,359.88,691.13Z"/></g></g></mask></defs><rect class="cls-11" width="226.77" height="226.77"/><g class="cls-12"><circle class="cls-13" cx="426.07" cy="649.65" r="95.23" transform="translate(-501.07 -366.88) rotate(-18.89)"/></g><g class="cls-14"><path class="cls-15" d="M417.92,570c-9.36,17.7,1.21,41.66,23.62,53.52s48.17,7.13,57.53-10.57-1.2-41.66-23.61-53.52S427.29,552.3,417.92,570Z" transform="translate(-313.66 -539.86)"/></g><g class="cls-16"><path class="cls-17" d="M419.83,571.31c-3.54,6.7,10.64,21.16,31.68,32.29s41,14.74,44.51,8-10.63-21.16-31.67-32.29S423.38,564.61,419.83,571.31Z" transform="translate(-313.66 -539.86)"/></g><path class="cls-18" d="M457.86,587.78a.36.36,0,1,0,.35-.36A.36.36,0,0,0,457.86,587.78Z" transform="translate(-313.66 -539.86)"/><path class="cls-18" d="M463.61,588.8a.55.55,0,1,0,.55-.55A.55.55,0,0,0,463.61,588.8Z" transform="translate(-313.66 -539.86)"/><path class="cls-18" d="M457.77,580.39a.45.45,0,1,0,.44-.44A.44.44,0,0,0,457.77,580.39Z" transform="translate(-313.66 -539.86)"/><path class="cls-18" d="M445.87,591.19a.39.39,0,0,0,.39.4.4.4,0,0,0,.4-.4.39.39,0,0,0-.4-.39A.38.38,0,0,0,445.87,591.19Z" transform="translate(-313.66 -539.86)"/><path class="cls-18" d="M454.52,597.52a.29.29,0,0,0,.57,0,.29.29,0,1,0-.57,0Z" transform="translate(-313.66 -539.86)"/><path class="cls-18" d="M468.52,596.73a.5.5,0,1,0,.49-.49A.49.49,0,0,0,468.52,596.73Z" transform="translate(-313.66 -539.86)"/><path class="cls-18" d="M473,576.12a.28.28,0,0,0,.28.29.29.29,0,1,0,0-.57A.28.28,0,0,0,473,576.12Z" transform="translate(-313.66 -539.86)"/><path class="cls-18" d="M473.63,565a.58.58,0,0,0,.57.57.57.57,0,0,0,.57-.57.56.56,0,0,0-.57-.57A.57.57,0,0,0,473.63,565Z" transform="translate(-313.66 -539.86)"/><path class="cls-18" d="M475.23,588.25a.55.55,0,1,0,.55-.55A.55.55,0,0,0,475.23,588.25Z" transform="translate(-313.66 -539.86)"/><path class="cls-18" d="M482.62,595.17a.47.47,0,1,0,.47-.47A.47.47,0,0,0,482.62,595.17Z" transform="translate(-313.66 -539.86)"/><path class="cls-18" d="M462.69,607.82a.46.46,0,1,0,.45-.46A.46.46,0,0,0,462.69,607.82Z" transform="translate(-313.66 -539.86)"/><path class="cls-18" d="M460.77,596.73a.5.5,0,0,0,.5.5.5.5,0,1,0,0-1A.49.49,0,0,0,460.77,596.73Z" transform="translate(-313.66 -539.86)"/><path class="cls-18" d="M444.18,596.24a.5.5,0,0,0,.5.49.5.5,0,1,0,0-1A.5.5,0,0,0,444.18,596.24Z" transform="translate(-313.66 -539.86)"/><path class="cls-18" d="M448.58,578.26a.4.4,0,0,0,.79,0,.4.4,0,1,0-.79,0Z" transform="translate(-313.66 -539.86)"/><path class="cls-18" d="M433.89,579.52a.31.31,0,0,0,.3.3.31.31,0,0,0,0-.61A.31.31,0,0,0,433.89,579.52Z" transform="translate(-313.66 -539.86)"/><path class="cls-18" d="M483.8,609.38a.28.28,0,0,0,.28.29.29.29,0,1,0,0-.57A.28.28,0,0,0,483.8,609.38Z" transform="translate(-313.66 -539.86)"/><path class="cls-18" d="M446.26,609.1a.4.4,0,0,0,.79,0,.4.4,0,1,0-.79,0Z" transform="translate(-313.66 -539.86)"/><path class="cls-18" d="M435.41,591.48a.35.35,0,0,0,.69,0,.35.35,0,1,0-.69,0Z" transform="translate(-313.66 -539.86)"/><path class="cls-18" d="M447,607.36a.46.46,0,0,0,.46.46.45.45,0,0,0,.46-.46.46.46,0,0,0-.46-.46A.47.47,0,0,0,447,607.36Z" transform="translate(-313.66 -539.86)"/><path class="cls-18" d="M449.9,575.84a.28.28,0,0,0,.28.28.29.29,0,1,0,0-.57A.28.28,0,0,0,449.9,575.84Z" transform="translate(-313.66 -539.86)"/><path class="cls-18" d="M448.67,617.35a.31.31,0,0,0,.61,0,.31.31,0,1,0-.61,0Z" transform="translate(-313.66 -539.86)"/><path class="cls-19" d="M454.23,587.21a.86.86,0,1,0,.86-.86A.87.87,0,0,0,454.23,587.21Z" transform="translate(-313.66 -539.86)"/><path class="cls-19" d="M460.77,586.35a1.14,1.14,0,1,0,1.14-1.14A1.14,1.14,0,0,0,460.77,586.35Z" transform="translate(-313.66 -539.86)"/><path class="cls-19" d="M462.44,585.65a.7.7,0,0,0,.7.7.7.7,0,0,0,.71-.7.71.71,0,0,0-.71-.71A.7.7,0,0,0,462.44,585.65Z" transform="translate(-313.66 -539.86)"/><path class="cls-19" d="M457.1,580.39a1.12,1.12,0,1,0,1.11-1.12A1.11,1.11,0,0,0,457.1,580.39Z" transform="translate(-313.66 -539.86)"/><path class="cls-19" d="M470.17,580.83a1,1,0,1,0,1-1A1,1,0,0,0,470.17,580.83Z" transform="translate(-313.66 -539.86)"/><path class="cls-19" d="M475.68,587.78a1,1,0,1,0,1-1A1,1,0,0,0,475.68,587.78Z" transform="translate(-313.66 -539.86)"/><circle class="cls-19" cx="148.54" cy="60.57" r="0.74"/><circle class="cls-19" cx="148.54" cy="67.05" r="1.42"/><path class="cls-19" d="M471.15,611.52a1,1,0,1,0,1-1A1,1,0,0,0,471.15,611.52Z" transform="translate(-313.66 -539.86)"/><path class="cls-19" d="M484.37,609.38a1,1,0,1,0,1-1A1,1,0,0,0,484.37,609.38Z" transform="translate(-313.66 -539.86)"/><path class="cls-19" d="M440,593a1.57,1.57,0,1,0,1.56-1.56A1.56,1.56,0,0,0,440,593Z" transform="translate(-313.66 -539.86)"/><path class="cls-19" d="M448.62,599.69a.75.75,0,0,0,.75.74.74.74,0,1,0,0-1.48A.75.75,0,0,0,448.62,599.69Z" transform="translate(-313.66 -539.86)"/><path class="cls-19" d="M477,594.6a.73.73,0,1,0,.73-.73A.73.73,0,0,0,477,594.6Z" transform="translate(-313.66 -539.86)"/><path class="cls-19" d="M482.71,593a1.66,1.66,0,1,0,1.66-1.67A1.66,1.66,0,0,0,482.71,593Z" transform="translate(-313.66 -539.86)"/><path class="cls-19" d="M442.61,579.85a.54.54,0,1,0,.54-.54A.54.54,0,0,0,442.61,579.85Z" transform="translate(-313.66 -539.86)"/><path class="cls-19" d="M432.23,573.53a1,1,0,1,0,2,0,1,1,0,0,0-2,0Z" transform="translate(-313.66 -539.86)"/><path class="cls-19" d="M481.24,577.26a1,1,0,1,0,1-1A1,1,0,0,0,481.24,577.26Z" transform="translate(-313.66 -539.86)"/><path class="cls-19" d="M455.85,571.46a1.25,1.25,0,1,0,1.25-1.24A1.25,1.25,0,0,0,455.85,571.46Z" transform="translate(-313.66 -539.86)"/><path class="cls-19" d="M434.19,610a.79.79,0,1,0,.79-.78A.79.79,0,0,0,434.19,610Z" transform="translate(-313.66 -539.86)"/><path class="cls-19" d="M439.19,593a.83.83,0,0,0,.83.83.83.83,0,1,0,0-1.66A.83.83,0,0,0,439.19,593Z" transform="translate(-313.66 -539.86)"/><path class="cls-19" d="M450.34,613.65a.77.77,0,1,0,.77-.77A.76.76,0,0,0,450.34,613.65Z" transform="translate(-313.66 -539.86)"/><path class="cls-19" d="M466.71,599.69a.74.74,0,1,0,.74-.74A.74.74,0,0,0,466.71,599.69Z" transform="translate(-313.66 -539.86)"/><path class="cls-19" d="M423.11,587.21a1.21,1.21,0,1,0,1.21-1.21A1.21,1.21,0,0,0,423.11,587.21Z" transform="translate(-313.66 -539.86)"/><g class="cls-20"><path class="cls-15" d="M357.75,690c-9.37,17.7,1.2,41.66,23.61,53.52s48.17,7.14,57.53-10.56-1.2-41.66-23.61-53.53S367.11,672.32,357.75,690Z" transform="translate(-313.66 -539.86)"/></g><g class="cls-21"><path class="cls-17" d="M359.88,691.13c-3.54,6.7,10.64,21.16,31.68,32.29s41,14.74,44.51,8-10.63-21.15-31.67-32.29S363.43,684.43,359.88,691.13Z" transform="translate(-313.66 -539.86)"/></g><path class="cls-18" d="M397.21,708.63a.29.29,0,1,0,.29-.29A.29.29,0,0,0,397.21,708.63Z" transform="translate(-313.66 -539.86)"/><path class="cls-18" d="M402.07,708.63a.31.31,0,0,0,.31.31.31.31,0,0,0,.31-.31.31.31,0,0,0-.31-.31A.3.3,0,0,0,402.07,708.63Z" transform="translate(-313.66 -539.86)"/><path class="cls-18" d="M403,712.32a.4.4,0,1,0,.79,0,.4.4,0,0,0-.79,0Z" transform="translate(-313.66 -539.86)"/><path class="cls-18" d="M393.69,714.83a.45.45,0,0,1-.45.45.45.45,0,1,1,0-.9A.45.45,0,0,1,393.69,714.83Z" transform="translate(-313.66 -539.86)"/><path class="cls-18" d="M398,714.45a.37.37,0,1,0,.37-.37A.37.37,0,0,0,398,714.45Z" transform="translate(-313.66 -539.86)"/><path class="cls-18" d="M393.69,725.54a.4.4,0,1,0,.4-.4A.4.4,0,0,0,393.69,725.54Z" transform="translate(-313.66 -539.86)"/><path class="cls-18" d="M394.09,699.1a.4.4,0,1,0,.4-.4A.4.4,0,0,0,394.09,699.1Z" transform="translate(-313.66 -539.86)"/><path class="cls-18" d="M381.58,730.8a.34.34,0,1,0,.33-.34A.34.34,0,0,0,381.58,730.8Z" transform="translate(-313.66 -539.86)"/><path class="cls-18" d="M379.88,727.7a.4.4,0,1,0,.4-.4A.4.4,0,0,0,379.88,727.7Z" transform="translate(-313.66 -539.86)"/><path class="cls-18" d="M410,701.23a.4.4,0,0,0,.8,0,.4.4,0,0,0-.8,0Z" transform="translate(-313.66 -539.86)"/><path class="cls-18" d="M407.5,720a.4.4,0,1,0,.4-.4A.4.4,0,0,0,407.5,720Z" transform="translate(-313.66 -539.86)"/><path class="cls-18" d="M380.47,702.8a.4.4,0,0,0,.8,0,.4.4,0,1,0-.8,0Z" transform="translate(-313.66 -539.86)"/><path class="cls-18" d="M409.24,711.64a.4.4,0,0,0,.4.4.4.4,0,0,0,0-.8A.4.4,0,0,0,409.24,711.64Z" transform="translate(-313.66 -539.86)"/><path class="cls-18" d="M401.67,728.67a.4.4,0,0,0,.79,0,.4.4,0,1,0-.79,0Z" transform="translate(-313.66 -539.86)"/><path class="cls-18" d="M416.26,724.26a.29.29,0,1,0,.29-.29A.29.29,0,0,0,416.26,724.26Z" transform="translate(-313.66 -539.86)"/><path class="cls-18" d="M418.81,724.26a.29.29,0,1,0,.29-.29A.29.29,0,0,0,418.81,724.26Z" transform="translate(-313.66 -539.86)"/><path class="cls-18" d="M413.17,700.84a.28.28,0,0,0,.28.29.29.29,0,1,0,0-.58A.28.28,0,0,0,413.17,700.84Z" transform="translate(-313.66 -539.86)"/><path class="cls-18" d="M374,704.93a.29.29,0,1,0,.29-.29A.29.29,0,0,0,374,704.93Z" transform="translate(-313.66 -539.86)"/><path class="cls-18" d="M405.61,695.12a.29.29,0,1,0,.29-.29A.29.29,0,0,0,405.61,695.12Z" transform="translate(-313.66 -539.86)"/><path class="cls-18" d="M402.4,705.22a.29.29,0,1,0,.29-.29A.29.29,0,0,0,402.4,705.22Z" transform="translate(-313.66 -539.86)"/><path class="cls-18" d="M384.56,716.31a.29.29,0,1,0,.29-.29A.29.29,0,0,0,384.56,716.31Z" transform="translate(-313.66 -539.86)"/><path class="cls-19" d="M399,704.93a.85.85,0,1,0,.84-.85A.85.85,0,0,0,399,704.93Z" transform="translate(-313.66 -539.86)"/><path class="cls-19" d="M409.59,700.21a.84.84,0,1,0,.84-.84A.85.85,0,0,0,409.59,700.21Z" transform="translate(-313.66 -539.86)"/><path class="cls-19" d="M410,711.93a.8.8,0,0,0,.8.79.8.8,0,1,0-.8-.79Z" transform="translate(-313.66 -539.86)"/><path class="cls-19" d="M398.63,703.37a.72.72,0,1,0,.72-.72A.71.71,0,0,0,398.63,703.37Z" transform="translate(-313.66 -539.86)"/><path class="cls-19" d="M391.11,699.37a.84.84,0,1,0,.84-.84A.85.85,0,0,0,391.11,699.37Z" transform="translate(-313.66 -539.86)"/><path class="cls-19" d="M415.14,716a.84.84,0,1,0,.84-.84A.84.84,0,0,0,415.14,716Z" transform="translate(-313.66 -539.86)"/><path class="cls-19" d="M413.74,717.58a.39.39,0,0,0,.39.38.38.38,0,0,0,0-.76A.39.39,0,0,0,413.74,717.58Z" transform="translate(-313.66 -539.86)"/><path class="cls-19" d="M417.82,725.94a.63.63,0,1,0,.63-.62A.63.63,0,0,0,417.82,725.94Z" transform="translate(-313.66 -539.86)"/><circle class="cls-19" cx="109.99" cy="181.42" r="1.13"/><path class="cls-19" d="M392.78,724.26a.91.91,0,1,0,1.81,0,.91.91,0,0,0-1.81,0Z" transform="translate(-313.66 -539.86)"/><path class="cls-19" d="M391.7,719.71a.69.69,0,1,0,.69-.68A.69.69,0,0,0,391.7,719.71Z" transform="translate(-313.66 -539.86)"/><path class="cls-19" d="M395.23,722.8a1.17,1.17,0,1,0,.71-1.49A1.16,1.16,0,0,0,395.23,722.8Z" transform="translate(-313.66 -539.86)"/><path class="cls-19" d="M401.27,719.6a.8.8,0,1,0,1.59,0,.8.8,0,0,0-1.59,0Z" transform="translate(-313.66 -539.86)"/><path class="cls-19" d="M393.23,732.36a.57.57,0,0,0,.57.57.56.56,0,0,0,.57-.57.57.57,0,0,0-.57-.57A.58.58,0,0,0,393.23,732.36Z" transform="translate(-313.66 -539.86)"/><path class="cls-19" d="M387.08,704.93a.85.85,0,1,0,.85-.85A.85.85,0,0,0,387.08,704.93Z" transform="translate(-313.66 -539.86)"/><path class="cls-19" d="M386.12,704.93a1,1,0,1,0,1-1A1,1,0,0,0,386.12,704.93Z" transform="translate(-313.66 -539.86)"/><circle class="cls-19" cx="70.91" cy="159.53" r="1.38"/><path class="cls-19" d="M379.08,703.19a.78.78,0,1,0,.78-.77A.78.78,0,0,0,379.08,703.19Z" transform="translate(-313.66 -539.86)"/><path class="cls-19" d="M382.35,718.15a.66.66,0,0,0,.65.66.66.66,0,1,0,0-1.32A.66.66,0,0,0,382.35,718.15Z" transform="translate(-313.66 -539.86)"/><path class="cls-19" d="M383.66,729.61a.58.58,0,1,0,.58-.58A.58.58,0,0,0,383.66,729.61Z" transform="translate(-313.66 -539.86)"/><path class="cls-19" d="M395.65,734.49a.54.54,0,1,0,.54-.53A.54.54,0,0,0,395.65,734.49Z" transform="translate(-313.66 -539.86)"/><path class="cls-19" d="M389.42,707.63a.69.69,0,0,0,.69.69.69.69,0,0,0,0-1.38A.69.69,0,0,0,389.42,707.63Z" transform="translate(-313.66 -539.86)"/><path class="cls-19" d="M376,713.32a.57.57,0,0,0,.57.56.57.57,0,1,0,0-1.13A.57.57,0,0,0,376,713.32Z" transform="translate(-313.66 -539.86)"/><circle class="cls-19" cx="85.04" cy="151.47" r="0.67"/><path class="cls-19" d="M410.81,692.28a.82.82,0,1,0,.81-.82A.82.82,0,0,0,410.81,692.28Z" transform="translate(-313.66 -539.86)"/><path class="cls-19" d="M416.55,706.78a.47.47,0,1,0,.47-.47A.47.47,0,0,0,416.55,706.78Z" transform="translate(-313.66 -539.86)"/><path class="cls-19" d="M423.65,707.63a1.14,1.14,0,1,0,1.13-1.13A1.14,1.14,0,0,0,423.65,707.63Z" transform="translate(-313.66 -539.86)"/><path class="cls-19" d="M431,723.36a.83.83,0,1,0,.83-.83A.83.83,0,0,0,431,723.36Z" transform="translate(-313.66 -539.86)"/><path class="cls-19" d="M381.58,689.47a.85.85,0,1,0,.85-.85A.85.85,0,0,0,381.58,689.47Z" transform="translate(-313.66 -539.86)"/><path class="cls-19" d="M354.39,701.63a1,1,0,1,0,2,0,1,1,0,0,0-2,0Z" transform="translate(-313.66 -539.86)"/><path class="cls-22" d="M522.66,670.07,509.74,633.7c-.67-1.89-2.71-3.11-6.39-2.91H487.12c-3.64,0-4.86,2.06-5.13,2.81a30.61,30.61,0,0,0-.84,3.1L475.06,662l-6.89-23.7c-.57-2-1-3.35-1.36-4.2a5.92,5.92,0,0,0-1.83-2.35,5.68,5.68,0,0,0-3.7-1.08,5.7,5.7,0,0,0-5.68,3.49,37.82,37.82,0,0,0-1.36,4.14L447.42,662l-3.19-14.48-2.81-11.18c-1.33-3.66-4.13-5.45-9.69-5.45h-3.06c-2.68,0-9.74.6-10.22,8.22v1.45c0,.3,0,.61,0,.94v16.22c0,3.71-.77,6.47-2.29,8.3s-4.12,2.73-7.81,2.73a12,12,0,0,1-6.22-1.34,7.1,7.1,0,0,1-3.09-3.79,18.24,18.24,0,0,1-.87-6.08l-.71-16a8.23,8.23,0,0,0-.06-1h0v-.93c-1-8.13-8.13-9.23-10.81-9.23h-3c-8.36,0-10.48,10.51-10.48,10.51h0l-7,21.68-10.5-25.94c-.84-1.85-3.17-5.68-7.5-5.68-3.84,0-6.18,2.32-7.34,6.78l-9.89,32.62c-.59,1.66-.58,2.92,0,3.79a3.58,3.58,0,0,0,3.16,1.31c1.46,0,2,.12,3.71-1.89l1-2.48,9.54-29L360,670.18c.33.7.66,1.39,1,2.06a6.8,6.8,0,0,0,1.24,1.76,4.36,4.36,0,0,0,1.77,1.09,7.71,7.71,0,0,0,2.46.35c3.82,0,4.68-2.14,6.37-5.79l8.93-27.91,1.16-3.33c.82-2.09,1.86-2.1,3-2.1,2.21,0,2,2.52,2.06,4.37,0,.27,0,.55,0,.85l.71,15.57a27.73,27.73,0,0,0,1.14,8.45,13.24,13.24,0,0,0,3.59,5.79,15.06,15.06,0,0,0,6.31,3.35,34.73,34.73,0,0,0,9.24,1.08,27.6,27.6,0,0,0,7.87-1,15.85,15.85,0,0,0,5.9-3.19,13,13,0,0,0,4-6,28.86,28.86,0,0,0,1.06-8.49V641.53c0-.3,0-.58,0-.86.1-1.88-.45-4.07,2.77-4.24,2.57-.13,2.82,3.26,3.5,5.65l.64,2.62h0l5.64,23.06c.23.87.49,1.81.79,2.83a10.63,10.63,0,0,0,1.14,2.63,5,5,0,0,0,1.83,1.72,6.08,6.08,0,0,0,2.87.6,5.46,5.46,0,0,0,3.46-1,5.59,5.59,0,0,0,1.82-2.3c.35-.86.82-2.28,1.42-4.25l7.61-26,7.53,26c.61,2,1.08,3.47,1.42,4.31a5.38,5.38,0,0,0,5.27,3.26,5.41,5.41,0,0,0,3.54-1,5.79,5.79,0,0,0,1.78-2.41c.35-.92.79-2.36,1.31-4.34l7.51-28.27c.4-1.45,1.32-1.32,1.32-1.32l10.61,0a1.27,1.27,0,0,1,1.2.81l4.07,11.45H494.47a3.76,3.76,0,0,0-3.89,3.63h0a3.76,3.76,0,0,0,3.89,3.62h14.94l5.35,15.06a4.28,4.28,0,0,0,5.68,2.34A3.93,3.93,0,0,0,522.66,670.07Z" transform="translate(-313.66 -539.86)"/></svg>
