<svg xmlns="http://www.w3.org/2000/svg" xmlns:xlink="http://www.w3.org/1999/xlink" width="79" height="79"
     viewBox="0 0 213 133">
  <symbol id="logo-symbol-icon">
    <path class="cls-1"
          d="M213,85.64l-14.3-40.28c-.75-2.1-3-3.46-7.09-3.23h-18c-4,0-5.39,2.28-5.68,3.11a28.71,28.71,0,0,0-.93,3.44l-6.75,28.05-7.63-26.25c-.63-2.16-1.14-3.71-1.51-4.65a6.66,6.66,0,0,0-2-2.61A6.36,6.36,0,0,0,145,42a6.35,6.35,0,0,0-6.29,3.86,39,39,0,0,0-1.51,4.59l-7.56,26.25-3.53-16L123,48.31c-1.48-4.06-4.58-6-10.73-6h-3.39c-3,0-10.8.66-11.32,9.1V53c0,.33,0,.67,0,1V72c0,4.11-.85,7.17-2.53,9.19s-4.57,3-8.65,3a13.27,13.27,0,0,1-6.89-1.5A7.84,7.84,0,0,1,76,78.53a20.3,20.3,0,0,1-1-6.73L74.27,54a10.26,10.26,0,0,0-.07-1.14h0v-1c-1.1-9-9-10.23-12-10.23H58.87c-9.26,0-11.61,11.64-11.61,11.64h0l-7.76,24L27.87,48.56c-.92-2-3.5-6.28-8.31-6.28-4.25,0-6.84,2.57-8.13,7.5L.48,85.91q-1,2.76,0,4.21A4,4,0,0,0,4,91.56c1.61,0,2.26.14,4.11-2.09l1.12-2.74L19.8,54.58l13,31.18c.37.78.73,1.54,1.11,2.28A7.85,7.85,0,0,0,35.3,90a4.91,4.91,0,0,0,2,1.21,8.75,8.75,0,0,0,2.73.39c4.24,0,5.18-2.38,7-6.42l9.89-30.91,1.29-3.68c.91-2.32,2.06-2.33,3.37-2.33,2.45,0,2.2,2.78,2.28,4.83,0,.31,0,.62,0,1l.78,17.24a30.7,30.7,0,0,0,1.27,9.36,14.72,14.72,0,0,0,4,6.42,16.78,16.78,0,0,0,7,3.7A38.3,38.3,0,0,0,87.08,92a30.25,30.25,0,0,0,8.71-1.12,17.56,17.56,0,0,0,6.54-3.53,14.52,14.52,0,0,0,4.45-6.62A32.22,32.22,0,0,0,108,71.27V54c0-.34,0-.65,0-1,.11-2.07-.5-4.5,3.07-4.69,2.84-.15,3.12,3.61,3.88,6.26l.71,2.9h0l6.24,25.54c.26,1,.55,2,.88,3.13A11.73,11.73,0,0,0,124,89.13a5.41,5.41,0,0,0,2,1.9,6.7,6.7,0,0,0,3.19.67A6,6,0,0,0,133,90.57,6.27,6.27,0,0,0,135,88q.59-1.42,1.56-4.71L145,54.51l8.33,28.8q1,3.38,1.58,4.77a6,6,0,0,0,5.84,3.62,6,6,0,0,0,3.92-1.14,6.52,6.52,0,0,0,2-2.68q.57-1.51,1.46-4.8l8.31-31.31c.45-1.61,1.46-1.46,1.46-1.46l11.75-.06a1.4,1.4,0,0,1,1.33.9l4.51,12.68h-13.7a4.17,4.17,0,0,0-4.31,4h0a4.17,4.17,0,0,0,4.31,4h16.55l5.92,16.68a4.74,4.74,0,0,0,6.29,2.59A4.34,4.34,0,0,0,213,85.64Z"
          fill="#c39d61"/>
    <path class="cls-1"
          d="M105,3.49c25.41,0,47.52,13.31,58.91,32.93h.54a66.74,66.74,0,0,0-118.91,0h.54C57.44,16.8,79.55,3.49,105,3.49Z"
          fill="#c39d61"/>
    <path class="cls-1"
          d="M103.76,130c-25.4-.94-47-15.05-57.68-35.08l-.53,0a66.74,66.74,0,0,0,118.83,4.36l-.54,0C151.74,118.42,129.15,130.92,103.76,130Z"
          fill="#c39d61"/>
  </symbol>
  <use xlink:href="#logo-symbol-icon" style="color:#fff"/>
</svg>

