<svg width="266" height="66" viewBox="0 0 738 188" fill="#c39d61"
     xmlns="http://www.w3.org/2000/svg" xmlns:xlink="http://www.w3.org/1999/xlink">
  <symbol id="logo-symbol-wordmark">
    <g id="Layer_1" data-name="Layer 1">
        <path class="cls-1"
              d="M736.14,120,686.69,63.56c-2.57-2.94-10.37-4.84-24.47-4.53H600.08c-13.94,0-18.61,3.2-19.62,4.36a28,28,0,0,0-3.22,4.82l-23.33,39.31L527.54,70.74a58.27,58.27,0,0,0-5.22-6.52c-1.29-1.32-3.62-2.53-7-3.65s-8.07-1.68-14.15-1.68-10.73.54-14.21,1.61-6,2.34-7.54,3.81a42.43,42.43,0,0,0-5.22,6.43l-26.12,36.78-12.2-22.47L425.14,67.7c-5.1-5.69-15.83-8.46-37.08-8.46H376.33c-10.27,0-37.3.93-39.11,12.75v2.26a6.21,6.21,0,0,0-.18,1.46v25.17q0,8.64-8.75,12.88T298.4,118q-15.3,0-23.81-2.09c-5.67-1.4-9.62-3.35-11.85-5.88a13.72,13.72,0,0,1-3.34-9.43l-2.71-24.9a6.29,6.29,0,0,0-.22-1.59h0V72.68c-3.79-12.62-31.13-14.33-41.4-14.33H203.45c-32,0-40.12,16.31-40.12,16.31h0l-26.81,33.65L96.33,68.05c-3.2-2.87-12.12-8.81-28.72-8.81-14.68,0-23.65,3.6-28.1,10.52L1.67,120.38q-3.37,3.87.08,5.9t12.1,2c5.58,0,7.81.2,14.21-2.93l3.86-3.85,36.5-45,45,43.69c1.25,1.08,2.52,2.15,3.81,3.19a18.88,18.88,0,0,0,4.76,2.72,27.64,27.64,0,0,0,6.76,1.71,72.35,72.35,0,0,0,9.42.53c14.65,0,17.93-3.32,24.39-9L196.77,76l4.46-5.16c3.12-3.24,7.11-3.26,11.62-3.26,8.47,0,7.62,3.9,7.91,6.77a6.37,6.37,0,0,0-.16,1.33l2.72,24.16A20.37,20.37,0,0,0,227.69,113q4.38,5.49,13.73,9t24.18,5.19A322.18,322.18,0,0,0,301,128.84a254,254,0,0,0,30.13-1.56,107.86,107.86,0,0,0,22.6-5q11.29-4,15.37-9.27a21,21,0,0,0,4.07-13.18V75.71a6.47,6.47,0,0,0-.16-1.34c.39-2.91-1.73-6.31,10.62-6.58,9.8-.21,10.77,5.06,13.39,8.77l2.46,4.07h0L421,116.42c.89,1.35,1.91,2.81,3,4.39a16,16,0,0,0,4.37,4.08,21.44,21.44,0,0,0,7,2.67,53.57,53.57,0,0,0,11,.94,44.83,44.83,0,0,0,13.24-1.59c3.32-1,5.65-2.25,7-3.58a63.67,63.67,0,0,0,5.4-6.59l29.16-40.35L530,116.74a65.93,65.93,0,0,0,5.46,6.68q1.95,2,6.93,3.52a45.59,45.59,0,0,0,13.24,1.56q8.75,0,13.55-1.61c3.2-1.07,5.46-2.32,6.8-3.74a52.53,52.53,0,0,0,5-6.73l28.75-43.87c1.53-2.26,5-2,5-2l40.62-.09c2.1,0,4,.51,4.62,1.26l15.56,17.77H628.21c-8.22,0-14.89,2.52-14.89,5.63h0c0,3.11,6.67,5.63,14.89,5.63h57.22l20.46,23.37c3,3.36,13,5.1,21.75,3.63C735.3,126.43,738.77,123,736.14,120Z"
              fill="#c39d61"/>
        <path class="cls-1"
              d="M362.78,4.88C450.61,4.88,527,23.54,566.41,51h1.85C530.08,20.75,452.43,0,362.78,0S195.47,20.75,157.29,51h1.85C198.53,23.54,275,4.88,362.78,4.88Z"
              fill="#c39d61"/>
        <path class="cls-1"
              d="M358.6,182.14c-87.77-1.3-162.45-21.08-199.32-49.15l-1.85,0C192.85,163.8,268.57,185.69,358.16,187s169.07-18.25,210-48l-1.84,0C524.43,165.94,446.38,183.45,358.6,182.14Z"
              fill="#c39d61"/>
    </g>
    <defs>
      <style>.cls-1{fill:#c39d61;}</style>
    </defs>
  </symbol>
  <use xlink:href="#logo-symbol-wordmark" style="color:#fff"/>
</svg>
